# xmcd
#
# Track frame offsets: 
#        150
#        16420
#        31903
#        48737
#        64540
#        76580
#        92225
#        107846
#        122470
#        133551
#        146796
#        162521
#
# Disc length: 2395 seconds
#
# Revision: 0
# Processed by: cddbd v1.5.2PL0 Copyright (c) Steve Scherf et al.
# Submitted via: ExactAudioCopy v0.99pb3
#
DISCID=9b09590c
DTITLE=Various Artist - Soul of the 70s
DYEAR=2001
DGENRE=Soul
TTITLE0=Harold Melvin and the Blue Notes - Wake Up Everybody
TTITLE1=Ben E King - Supernatural Thing (Part 1)
TTITLE2=Major Harris - Love Won't Let Me Wait
TTITLE3=Bobby Womack - Lookin' for a Love
TTITLE4=The Tymes - You Little Trust Maker
TTITLE5=William DeVaughn - Be Thankful for What You Got
TTITLE6=Al Wilson - Show and Tell
TTITLE7=Joe Simon - Drowning in a Sea of Love
TTITLE8=Jean Knight - Mr. Big Stuff
TTITLE9=Percy Sledge - Take Time to Know Her
TTITLE10=King Floyd - Groove Me
TTITLE11=Brook Benton - Rainy Night in Georgia
EXTD=
EXTT0=
EXTT1=
EXTT2=
EXTT3=
EXTT4=
EXTT5=
EXTT6=
EXTT7=
EXTT8=
EXTT9=
EXTT10=
EXTT11=
PLAYORDER=
